<svg xmlns="http://www.w3.org/2000/svg" width="157" height="36" version="1.1" viewBox="0 0 157 36"><defs><path id="path-1" d="M.012.477a14.7 14.7 0 0 0 .769 1.918c.387.812.875 1.543 1.43 2.25l.018.027-.002-.004-.005-.009a.91.91 0 0 1 .049.044l.038.039c.089.086.183.172.277.258.098.082.195.16.293.238-.004.028-.008.051-.008.074-.016.161-.019.325-.031.485a15.974 15.974 0 0 1-.238 1.879c-.262 1.449-.629 2.984-1.438 4.238-.156.246-.344.516-.598.66 0-.004.004-.004-.004-.015.008-.012-.007-.145-.003-.121l-.024-.372c-.023-.476-.047-.953-.062-1.425C.395 8.73.363 6.816.285 4.906.219 3.332.211 2.035.012.477Z"/><path id="path-3" d="M.012.477a14.7 14.7 0 0 0 .769 1.918c.387.812.875 1.543 1.43 2.25l.018.027-.002-.004-.005-.009a.91.91 0 0 1 .049.044l.038.039c.089.086.183.172.277.258.098.082.195.16.293.238-.004.028-.008.051-.008.074-.016.161-.019.325-.031.485a15.974 15.974 0 0 1-.238 1.879c-.047.269-.098.543-.161.816a7.948 7.948 0 0 1-1.187-2.195A31.554 31.554 0 0 1 .191 2.535"/></defs><g id="logo-+-mark" fill="none" fill-rule="evenodd" stroke="none" stroke-width="1"><g id="Group"><path id="Fill-5" fill="#172E56" d="M35.686 16.882s-.043.168-.043.211c.043 0 .086 0 .129-.043.464-.254 1.015-.379 1.519-.594.68-.293 1.949-1.394 1.906-2.199 0-1.313-1.355-2.75-2.496-3.258-.297-.082-.761-.125-1.015-.168H35.6c-.043 0-.043.086-.043.125 0 1.524.34 2.965.297 4.488 0 .125-.168 1.266-.168 1.438m.168 11.293c1.144 0 2.625-.59 3.425-1.438 0-.043.043-.21.043-.21v-1.14c0-.044-.043-.298-.082-.384-.425-1.059-1.144-1.352-2.074-1.734-.043 0-.086-.043-.125-.043-.254-.082-.34-.082-.551-.082-1.355 0-1.144.211-1.144 1.52 0 1.101.172 2.116.383 3.175 0 .086.043.211.043.297 0 .04.039.04.082.04m-7.489 5.163c-.082-1.652-.336-3.3-.465-5.035 0-3.004.043-6.348-.253-9.39a95.595 95.595 0 0 1-.297-3.47c0-.128-.043-1.484-.043-1.652 0-.21-.082-1.523-.168-1.69v-.552c0-.508 0-.762.168-1.313l-.039-2.535c.039-.297.168-2.75.465-2.879.125 0 .589 0 .632-.043l4.317-.168c1.734-.043 3.426.211 5.117.38l2.496.253c.891.086 1.777.508 2.582.934.379.125.973.336 1.356.633 1.734 1.61 2.492 3.382 2.875 5.754 0 .085.042.128.042.211.126.675.211 1.312.211 2.031.043 1.312-.886 2.328-1.523 3.386-.125.125-.168.336-.254.422-.465.465-1.058.72-1.648.93v.043c.507.297 1.226.72 1.562 1.184.215.254.254.507.426.804.082.043.336.336.465.508.297.762.422 1.27.719 1.988.042.168.168 1.141.168 1.352v.723c.042.93-.168 2.41-.633 3.296-.129.297-.383.508-.551.762-.043.043-.254.383-.254.422-.547 1.02-1.523 1.566-2.496 2.117l-.254.125c-2.41 1.27-5.246 1.313-7.91 1.356h-.297c-.34 0-1.184.043-1.184.043l-3.894-.21c-.633-.13-1.266.124-1.438-.72"/><path id="Fill-6" fill="#172E56" d="M60.139 22.972h.547c.297 0 1.101 0 1.101-.465 0-.043-.043-.125-.043-.125 0-.086-.086-.594-.086-.68-.168-.76-.168-1.562-.379-2.367 0-.129-.168-.719-.211-.805-.128-.632-.168-1.437-.382-2.074-.168-.21-.293-.504-.633-.504-.086 0-.211 0-.297.082-.297.34-.633 1.821-.676 2.285l-.637 4.317v.043c0 .082 0 .125.086.168.254 0 1.356.125 1.61.125m2.75 9.73-.043-.043c0-.039.082-.379.082-.422v-.086c0-.082-.082-.929-.082-1.054 0-.297 0-.637-.172-.89-1.395 0-2.707-.423-4.059-.38-.507 0-.718 0-1.269.125-.211.13-.594.762-.594 1.06v.042c0 .043.043.125.043.125v.086s-.086.086-.086.13v.928c-.039.508-.336 1.524-1.016 1.567h-.167c-.126 0-1.481-.129-1.649-.129h-1.101c-1.141 0-4.102-.21-4.145-1.82v-.254c.125-.59.719-3.129.805-3.68l.254-1.777c0-.043.039-.21.082-.254l.847-3.55c.297-1.103.676-2.243 1.016-3.345.254-1.058.125-2.156.379-3.215.086-.21.636-2.328.679-2.582l.336-1.648c0-.086.211-.594.254-.68l.805-2.918c0-.082.168-1.054.211-1.14 0-.168.211-1.145.254-1.356 0-.082.129-.336.168-.422v-.043h.086a.44.44 0 0 1 .086.211h.043c0-.043.168-.168.168-.21l.379-.169c1.187-.168 2.074-.129 5.417-.168.465 0 2.536 0 3.004.04.297.042.887.042 1.098.34.211.253.086.253.211.55.211.508.465.93.637 1.48.211.551.465 1.098.59 1.692l.636 2.836.422 1.226c.465 1.692.676 3.47 1.141 5.161a66.35 66.35 0 0 1 1.269 5.625c0 .171.129 1.355.129 1.523l.422 1.82c.086.676.594 3.723.719 4.36 0 .504.086 1.054.129 1.52 0 .636-1.059 1.058-1.481 1.187h-.933c-1.352 0-2.707-.043-4.059-.129-1.058-.336-1.945.297-1.945-1.27"/><path id="Fill-7" fill="#172E56" d="M72.701 31.898c-.082-3.594-.254-7.149-.211-10.786 0-.085-.043-.636-.043-.718v-2.16c0-1.016-.211-2.032-.211-2.96 0-.337.086-.634.086-.93a5.02 5.02 0 0 0-.043-.384c0-.168-.086-1.14-.129-1.226 0-.293.043-2.707 0-3.004 0-.125-.082-1.184-.082-1.309V8.25c0-.379 0-.762.043-1.055 0-.128.125-.847.125-.972.086-.68.676-.805 1.184-.89 2.16.042 4.484.042 6.645-.044.464.13.464.805.589 1.145.043.254.426 1.14.508 1.351l2.371 7.532c0 .043.168.378.168.464.125.297.465 1.61.594 1.907.039.04.082.211.125.254.043.168.426 1.308.508 1.52 0 .042.043.296.043.34.297-.423.168-1.142.168-1.61v-.465c-.168-3.172-.211-6.344-.551-9.559a37.836 37.836 0 0 0-.422-2.836v-.043c.129-.21.383-.21.637-.254.801-.043 4.484-.168 5.328-.21.426 0 .891-.087 1.312-.087.297 0 .719.47.762.723.043.125.082.72.082.801.086.723.383 1.566.34 2.285.086.68.383 3.81.422 4.441 0 0 .047 1.4.047 1.95 0 .547-.047 2.324-.047 2.496 0 .718-.082 4.355-.125 5.117l.34 8.926v.211c0 .297-.086 1.058-.086 1.101-.082 1.098-1.567 1.06-2.371 1.27l-3.508.508c-1.523 0-1.988-.465-2.453-2.118-.594-1.394-1.145-2.832-1.696-4.273a14.639 14.639 0 0 1-.464-1.184l-1.356-3.09c-.168-.632-.504-1.097-.758-1.734v1.567c0 2.54.211 5.035.211 7.574V33c-.129.848-1.226 1.06-1.945 1.141-.383.043-2.285.215-2.711.254-.633.215-1.309.254-2.07.254-.637 0-1.227-.21-1.313-.887 0-.254-.043-1.61-.043-1.863"/><path id="Fill-8" fill="#172E56" d="M94.49 29.995c.039-.21.293-1.058.379-1.226.168-.465.465-.805.637-1.227l.082-.172c.383-1.01.805-2.027 1.863-2.496.125-.039.422-.168.465-.168h.043l1.352 1.313c.507.465 1.187 1.101 1.949 1.101 1.226 0 1.605-1.312 1.605-2.37 0-.087 0-.13-.086-.169-1.14-1.777-2.535-3.3-3.804-4.953l-.254-.336c-1.399-1.945-2.707-3.808-2.707-6.262 0-1.394.293-2.75.801-4.058.761-.805 1.355-1.695 2.16-2.457 1.562-1.438 3.976-1.86 5.965-1.86.8 0 1.691.043 2.453.422l.336.168c1.863.891 3.089 1.481 3.976 3.43v.211l-.211.72c-.039.295-.465 1.522-.547 1.82-.254.335-.254.8-.468 1.183l-.379.675c0 .043-.086.168-.129.211-.254.34-.461 1.102-1.012 1.102-1.016 0-1.734-1.356-2.668-1.735-.336-.128-.676-.128-1.015-.128-.083 0-.422.043-.508.043-.508.167-1.055.593-1.055 1.183 0 .34.211.594.422.891.848.93 1.82 1.734 2.793 2.54.676.546 1.523 1.14 2.113 1.858a12.092 12.092 0 0 1 1.399 2.074c.168.336.253.72.507 1.016l.547 1.605c.043.676.211 1.356.211 2.075 0 .847-.887 3.808-1.605 4.527l-1.567 1.648c-.761.551-1.437 1.102-2.367 1.4a17.25 17.25 0 0 1-2.242.546c-.086.043-1.016.172-1.145.215-.039 0-.211.04-.211.082h-1.734c-.551-.168-1.098-.21-1.648-.422-1.438-.508-4.696-1.946-4.696-3.852v-.168Z"/><path id="Fill-9" fill="#172E56" d="M125.158 33.972c.086 0 .086-.082 0-.082-.082 0-.082.082 0 .082m-11.422-8.332c0-.977.043-1.949.043-2.96 0-.044-.043-.087-.043-.216 0 0 0-.082.043-.082v-1.227c0-.382-.086-1.906-.125-2.242 0-.043-.043-.129-.043-.129v-.086c0-.082.125-1.01.125-1.14v-.168c0-.21-.082-.297-.082-.465 0-.172.082-.34.082-.55 0-1.016-.082-2.032-.125-3.005-.043-.168-.128-1.269-.128-1.355-.04-.21-.125-.379-.125-.59 0-.129.042-.297.125-.426.085-1.394.171-2.96.128-4.312.125-.297.082-.719.254-1.016.297-.465 1.649-.55 2.114-.55.171-.044 1.652-.087 1.82-.087h2.75l.848.254c.125.043.211.426.211.508 0 0 .042.508.042.68v.082c0 .086-.042.593-.042.72l.21 1.776v3.851c0 .336.168.633.168.973 0 .168-.082.34-.125.551.465.211 1.016.125 1.481.125h.082c.258 0 .723 0 .891-.254 0-.043.043-.297.043-.297 0-.21.042-1.48.042-1.648 0-.043.126-.633.168-.676 0-.129.043-.469.043-.508 0-.129-.043-1.187 0-1.355.082-1.184.254-2.114.336-3.34V5.46c0-.426.211-.89.762-.89h5.797c.043 0 .254.042.34.085.082.043.422.125.508.168.761.508.972 2.707.972 3.512 0 .125-.043.426-.043.426 0 .168-.297 1.52-.297 1.691 0 .168-.043 1.438-.043 1.817 0 .086-.043 2.371-.043 3.215 0 1.652.086 3.3.086 4.953v.125c0 .086-.125.847-.125.972-.043.93.125 1.99-.128 2.918.043 1.313.128 3.473-.297 4.7-.043.292-.254 1.816-.297 2.156-.082.676 0 1.523-.336 2.156-.254.551-1.102.637-1.567.72-1.14.128-1.648.128-2.75.128h-1.437c-.422-.043-.594-.34-1.016-.34v-.043c0-.039.043-.039.043-.039 0-.215-.129-.383-.172-.55v-.173c0-.125-.082-1.055-.125-1.183v-.086c0-.082.043-.336.043-.379 0-.379.082-2.242.082-2.664v-.043c0-.254-.125-3.3-.125-3.598v-1.098c0-.718.211-1.777-.675-2.03h-.594c-.422 0-1.352 0-1.524.296-.125 1.184-.632 2.2-.632 3.426 0 1.351.336 3.636.336 4.992v.34c0 .125-.254 1.183-.254 1.308-.039.465-.082 1.06-.547 1.356-.043 0-.297.086-.383.125-1.988.551-3.934.594-5.965.594-.125 0-.168 0-.297-.086-.844-.844-.043-9.008-.508-8.797"/><path id="Fill-10" fill="#172E56" d="M143.139 16.671v3.723c.211.843.34 6.937 2.117 6.261.93 0 1.48-.425 2.156-1.1.043-.169.086-.509.254-.634.422-1.312.719-2.668.719-4.062v-.887c-.043-.383-.082-2.16-.125-2.539a4.374 4.374 0 0 0-.254-1.059c-.043 0-.172 0-.211-.043v-.21c-.043-.087-.215-.677-.254-.762-.34-.805-1.441-2.243-2.371-2.243-1.691 0-2.031 2.075-2.031 3.555m-8.543 0c.336-.637.336-1.187.379-1.82.043-.297.211-.55.254-.848.086-.336.086-.676.086-1.016 0 0 .082-.125.082-.168.171-.296.679-1.566.722-1.69.168-.423.293-.892.504-1.27.934-1.438 1.988-2.665 3.215-3.848 1.82-.848 2.879-1.738 5.035-1.738 1.653 0 4.695.761 6.137 1.992 1.48 1.222 2.535 2.367 3.383 4.144.254.59.422 1.352.636 1.903.039.043.297.675.336.718.254.637.254 1.864.465 2.497.043.171.383 1.355.426 1.48.125.551.125 1.863.293 2.242 0 .211.129 1.227.129 1.442v.125c0 .421-.168.718-.254 1.14 0 .086-.043.68-.043.723-.211 1.351-.633 2.664-.801 3.976-.976 2.243-2.328 4.524-4.488 5.793-.168.172-1.481.973-1.816 1.188-.215.125-.508.125-.68.254-.254.125-1.735.59-2.07.676-.129.043-1.227.296-1.356.335-.086.043-.551.172-.676.215h-.847c-2.243 0-2.325-.55-3.934-1.82-.043 0-.465-.254-.508-.297-.887-.633-1.566-1.394-2.285-2.156-.254-.297-.465-.934-.551-1.102-1.394-3.129-1.859-6.3-1.859-9.644 0-1.145.125-2.285.086-3.426"/><path id="Fill-11" fill="#E15743" d="M5.842 25.972c-.02-.039-.012-.012 0 0"/><path id="Fill-12" fill="#EB4A5B" d="M6.385 34.417s.008-.008.012-.023a1.92 1.92 0 0 1-.024-.21c-.004.077 0 .155.012.233"/><path id="Fill-13" fill="#EB4A5B" d="M10.635 10.151s.004 0 .008-.007c-.004 0-.008 0-.008.007Z"/><path id="Fill-14" fill="#EB4A5B" d="m5.647 26.331-.079-.078c-.031-.035.043.06-.019-.019-.555-.707-1.043-1.438-1.43-2.25a15.285 15.285 0 0 1-.769-1.918c.199 1.558.207 2.855.273 4.43.078 1.91.11 3.823.188 5.734.015.476.039.95.066 1.425.004.125.012.25.02.375-.004-.03.011.106.003.118.008.011.004.011.004.015.254-.144.442-.414.598-.66.809-1.254 1.176-2.789 1.438-4.238.113-.62.199-1.246.238-1.879.012-.16.015-.32.031-.485.004-.023.004-.05.008-.074a15.298 15.298 0 0 1-.293-.238c-.094-.086-.188-.172-.277-.258"/><g id="Group-17" transform="translate(3.338 21.59)"><mask id="mask-2" fill="#fff"/><path id="Fill-15" fill="#AF1F39" d="M-.449-1.93s.137 3.782 1.703 8.227c1.453 4.125 5.508 5.152 5.508 5.152l.703-9.812L-.449-1.93Z" mask="url(#mask-2)"/></g><g id="Group-20" transform="translate(3.338 21.59)"><mask id="mask-4" fill="#fff"/><path id="Fill-18" fill="#AF1F39" d="M2.961 5.453c-.016.164-.02.324-.031.485-.035.632-.18 1.289-.293 1.906-.262 1.453-.621 3.008-1.43 4.261a1.851 1.851 0 0 1-.637.598c0-.008-.086.078-.09.07-.105.106-.078-.207-.078-.175-.004-.125.008-.317 0-.442-.023-.476-.019-.886-.039-1.363C.289 8.883.27 6.965.188 5.055.121 3.48.066 1.547-.137-.012c.246.754.668 1.551 1 2.254.387.813.809 1.469 1.364 2.172.062.082.035.164.058.121.125-.23.082.063.11.086.089.09.148.152.242.234.093.086.445.34.543.415 0 .027-.215.16-.219.183" mask="url(#mask-4)"/></g><path id="Fill-21" fill="#EB4A5B" d="M1.096 7.8a4.818 4.818 0 0 0-.531.781c-.047.082-.09.16-.129.246a.826.826 0 0 0-.032.086c-.004 0-.004 0-.004.012.059.012.172-.03.235-.039.078-.012.16-.02.242-.027.262-.016.699-.05.77.292.058.297-.239.633-.329.903-.046.14-.136.39 0 .5.082.07.211.066.313.055.18-.024.359-.063.539-.082.645-.067 1.406.203 1.992.476.219.102-.008.254-.558.06-.356-.13-.457-.134-.817-.15.09.535.176 1.067.246 1.598.02.187.039.367.028.555-.063 1.007-.078 2.023-.11 3.035-.039 1.273-.008 2.535.274 3.785.164.75.398 1.484.644 2.215.239.7.504 1.386.84 2.047.172.336.359.664.563.98.113.18.23.356.355.527.07.094.141.192.215.286l.016.02c-.004 0-.004-.009 0 0 .316.351.668.68 1.019.995.137-1.676.301-3.344.547-5 .148-.969.336-1.929.617-2.87.32-1.063.563-1.716 1.039-2.716.098-.207.313-.386.289-.32-.433 1.137-.855 2.285-1.148 3.47-.559 2.237-.574 4.553-.754 6.842-.106 1.344-.219 2.688-.324 4.032-.051.66-.094 1.32-.145 1.98-.027.352-.051.7-.074 1.047-.02.281-.02.578-.078.856.078-.024.152-.05.168-.059.129-.059.246-.145.355-.238.203-.176.379-.39.531-.614a7.79 7.79 0 0 0 .45-.75c.718-1.339 1.258-2.777 1.793-4.195.476-1.27.976-2.777 1.64-3.96.176-.313.496-.727.414-.489l-1.004 2.883c-.578 1.644-1.199 3.285-1.925 4.867-.231.504-.473 1.015-.77 1.488a1.613 1.613 0 0 0 .992.695h.036c.035 0 .07 0 .109.012.265.008.527.012.793.012 1.808.008 3.613-.012 5.422-.03 1.144-.013 2.293-.025 3.437-.04l.028-.024c.64-.43 1.058-1.176 1.386-1.85.43-.88.746-1.822.926-2.783.16-.87.109-1.76-.004-2.636a8.28 8.28 0 0 0-.683-2.438c-.348-.746-.809-1.434-1.301-2.09a26.097 26.097 0 0 0-2.145-2.535c-.687-.719-1.426-1.383-2.144-2.07-.739-.703-1.457-1.426-2.114-2.207-.695-.825-1.464-1.91-1.765-2.449-.438-.786-.84-1.645-1.067-2.524-.363.148-.609.148-.48.04.215-.184.82-.642 1.043-.825.234-.199.453-.41.664-.633.445-.465.836-.98 1.141-1.547.144-.277.265-.562.351-.859.067-.227.215-.688-.035-.86-.152-.105-.445-.074-.621-.066-.039 0-.082 0-.121.008a5.004 5.004 0 0 0-.707.234 8.586 8.586 0 0 0-.946.496c-.613.368-1.199.786-1.847 1.09-1.156.547-2.696.813-3.688-.183-.121-.125.067-.309.192-.192 1.023.97 2.633.504 3.73-.094.598-.328 1.164-.714 1.766-1.035.32-.172.703-.367 1.09-.453a.398.398 0 0 1 .09-.043c.121-.043.25-.07.378-.09.227-.035.485-.058.711 0a.56.56 0 0 1 .395.426c.043-.098.094-.199.14-.297.106-.215.219-.422.329-.633.027-.05.054-.109.078-.164-.27.012-.52-.164-.688-.359-.168-.19-.273-.43-.453-.605a.862.862 0 0 0-.293-.192c-.062-.023-.125-.039-.187-.055-.395.075-.789.15-1.184.223-.523.102-1.051.188-1.582.242-.262.028-.445.016-.707.02-.238 0-.547-.03-.773-.117-.09-.032-.149-.11-.043-.114.277-.007.414-.015.679-.054-.058-.02-.207-.094-.265-.118a5.52 5.52 0 0 0-1.258-.277 8.052 8.052 0 0 0-1.336-.012c-.223.012-.449.032-.676.051-.058 0-.125.012-.191.02.011.027.054.164.062.191.074.223-.293-.16-.41-.324-.094-.129-.859-1.168-1.07-1.48-.203-.297-.41-.59-.641-.868-.117-.14-.262-.277-.383-.426-.027.454-.132.907-.183 1.356-.051.496-.075.996-.067 1.492.004.524.047 1.051.125 1.567.078.511.239 1.125.348 1.632.031.15-.801.5-1.055.715a5.602 5.602 0 0 0-.73.731"/><path id="Fill-22" fill="#EB4A5B" d="M20.873 17.253a13.141 13.141 0 0 1-2.363 2.582s.004 0 .008.012a13.012 13.012 0 0 0 2.355-2.59"/><path id="Fill-23" fill="#EB4A5B" d="M2.467 6.273c-.324-.985-.43-2.086-.434-3.114-.004-.53.035-1.058.11-1.582 0-.01 0-.01.004-.015-.012.04-.024.074-.036.11a9.797 9.797 0 0 0-.156 4.863c.16-.11.332-.208.512-.262"/><path id="Fill-24" fill="#EB4A5B" d="M9.412 3.484c.207-.028.414-.055.621-.086.071-.012.137-.028.203-.039-.003-.059-.003-.122-.003-.18l-.024-.414a52.47 52.47 0 0 0-.055-.817c-.023-.273-.043-.547-.066-.82-.016-.187-.043-.39-.051-.586-.32.4-.664.781-.984 1.184-.324.406-.633.828-.926 1.261a10.027 10.027 0 0 1 1.012.348c.054.024.109.04.16.066.019.012.125.071.059.043a.118.118 0 0 1 .054.04"/><path id="Fill-25" fill="#EB4A5B" d="M21.658 13.034c-.367.196-.773-.043-1.019-.32-.293-.32-.465-.727-.68-1.098-.215-.359-.496-.76-.965-.757-.5 0-.906.375-1.23.714-.692.735-1.34 1.54-2.238 2.04-.36.195-.801.296-1.149.027a.975.975 0 0 1-.359-.59c-.387.422-.727.766-1.032 1.242.364.461.844 1.078 1.325 1.555 1.269 1.25 2.664 2.355 3.89 3.652.907-.832 1.746-1.75 2.414-2.78a9.39 9.39 0 0 0 1.481-4.2c-.102.215-.238.41-.438.515"/><path id="Fill-26" fill="#172E56" d="M5.44 5.124c.113-.015.222 0 .339.012h.094c.016 0 .055.008.047.008a.14.14 0 0 1 .066.011H6.022c.023 0 .05.008.078.008.004.004.008.004.015 0 .012 0 .028 0 .039.012.028.012.055.012.082.016.055.011.11.027.164.043.071.02.149.043.227.035.094-.016.188-.078.191-.184.004-.168-.152-.269-.289-.328a1.427 1.427 0 0 0-.429-.12 1.257 1.257 0 0 0-.387.011c-.07.015-.137.043-.199.07-.008 0-.02.012-.028.012a.07.07 0 0 1-.027.011l-.109.047c-.157.074-.086.352.09.332"/><path id="Fill-27" fill="#AF1F39" d="M1.686 3.374c.07-.57.195-1.137.371-1.687.011-.036.027-.075.039-.11-.004 0 .086-.03.086-.023a10.66 10.66 0 0 0-.125 1.617c.008 1.055.125 2.184.488 3.191a3.133 3.133 0 0 0-.664.305 9.155 9.155 0 0 1-.195-3.293"/><path id="Fill-28" fill="#EB4A5B" d="M19.498 10.585"/><path id="Fill-29" fill="#EB4A5B" d="M19.596 10.636c-.012-.008-.024-.012-.039-.02.015.008.027.012.039.02"/><path id="Fill-30" fill="#EB4A5B" d="M20.494 6.722c.77.95 1.239 2.125 1.477 3.316.07.367.113.731.137 1.094a3.443 3.443 0 0 1-.067.45c-.039.206-.098.41-.18.605-.074.18-.175.406-.347.507-.196.118-.391 0-.547-.164.152.164.336.274.527.18.344-.168.481-.758.551-1.094.031-.156.059-.316.074-.484a8.706 8.706 0 0 0-.14-1.094c-.235-1.183-.7-2.344-1.457-3.293-.364-.453-.805-.855-1.246-1.234a1.22 1.22 0 0 0-.172-.125c.054.043.109.086.168.137.441.375.855.746 1.222 1.2"/><path id="Fill-31" fill="#EB4A5B" d="M16.322 12.511a7.43 7.43 0 0 1-.586.473c-.203.152-.421.316-.671.386a.53.53 0 0 1-.438-.039c.156.106.356.086.535.016.461-.184.883-.57 1.242-.899.157-.144.305-.3.45-.46-.172.18-.344.355-.532.523"/><path id="Fill-32" fill="#EB4A5B" d="M18.225 10.683a2.802 2.802 0 0 0-.629.496c.191-.188.394-.356.629-.485.32-.179.695-.277 1.062-.187.035.008.074.02.11.035-.016-.012-.032-.015-.047-.019-.375-.125-.785-.028-1.125.16"/><path id="Fill-33" fill="#172E56" d="M18.201 19.5c-1.226-1.298-2.621-2.403-3.89-3.653-.481-.477-.961-1.094-1.325-1.555.305-.476.645-.82 1.032-1.242.043.23.168.441.359.59.348.27.789.168 1.149-.028.898-.5 1.546-1.304 2.238-2.039.324-.339.73-.71 1.23-.714.469 0 .75.398.965.757.215.371.387.778.68 1.098.246.277.652.516 1.019.32.2-.105.336-.3.438-.515a9.39 9.39 0 0 1-1.481 4.2c-.668 1.03-1.507 1.948-2.414 2.78m1.438 2.528c.492.66.953 1.343 1.301 2.09.359.77.574 1.601.683 2.441.113.875.164 1.765.004 2.636-.18.957-.496 1.903-.926 2.778-.328.676-.746 1.422-1.386 1.851-.008.012-.02.016-.028.028-1.144.011-2.293.023-3.437.04-1.809.014-3.614.038-5.422.026-.266 0-.528 0-.793-.012-.039 0-.074 0-.109-.007-.012-.004-.028 0-.036 0a1.605 1.605 0 0 1-.984-.688c-.004 0-.004 0-.008-.012.297-.468.539-.98.77-1.484.726-1.586 1.347-3.223 1.925-4.867.25-.715.754-2.172 1.004-2.887.082-.234-.238.18-.414.492-.664 1.184-1.164 2.692-1.64 3.961-.535 1.418-1.075 2.856-1.793 4.196a7.497 7.497 0 0 1-.45.746 3.231 3.231 0 0 1-.535.617 1.42 1.42 0 0 1-.351.238c-.016.012-.09.031-.168.06.058-.283.058-.576.078-.857.023-.347.047-.699.074-1.047.051-.66.098-1.32.145-1.98.105-1.344.218-2.688.324-4.03.18-2.29.195-4.61.754-6.845.293-1.184.715-2.336 1.148-3.473.024-.062-.191.117-.289.324-.476 1-.719 1.653-1.039 2.715-.281.938-.469 1.9-.617 2.867-.246 1.657-.41 3.33-.547 5-.351-.316-.703-.64-1.019-.992-.004-.01-.004 0 0 0-.004 0-.008-.01-.016-.019-.074-.098-.145-.192-.215-.289a9.262 9.262 0 0 1-.355-.524c-.204-.32-.391-.648-.563-.98a15.682 15.682 0 0 1-.84-2.05c-.246-.728-.48-1.462-.644-2.212-.282-1.254-.313-2.512-.274-3.789.032-1.012.047-2.023.11-3.03a2.935 2.935 0 0 0-.032-.556 36.931 36.931 0 0 0-.242-1.598c.36.016.461.02.817.145.55.2.777.043.558-.059-.59-.273-1.347-.539-1.992-.472-.18.015-.359.054-.539.082-.102.011-.231.015-.313-.055-.136-.113-.046-.363 0-.5.09-.273.387-.605.329-.902-.071-.344-.508-.313-.77-.293-.082 0-.164.015-.242.027-.063.008-.176.051-.235.035l.004-.008c.004-.03.02-.058.032-.089.039-.082.082-.165.129-.243.152-.277.328-.543.531-.785.222-.26.465-.508.73-.726.254-.215 1.086-.567 1.055-.715-.109-.508-.27-1.12-.348-1.633a11.769 11.769 0 0 1-.129-1.566c-.004-.497.02-.997.071-1.493.051-.453.156-.906.183-1.355.121.148.266.285.383.426.231.273.438.57.641.867.211.312.976 1.351 1.07 1.48.117.164.484.543.41.325a4.754 4.754 0 0 0-.062-.192 19.43 19.43 0 0 1 .871-.07c.441-.027.89-.035 1.332.012.422.043.863.136 1.258.277.058.02.207.098.265.117a4.32 4.32 0 0 1-.679.055c-.106 0-.047.078.043.113.226.082.535.121.773.117.262 0 .445.008.707-.019a22.027 22.027 0 0 0 1.582-.242c.395-.075.789-.153 1.184-.223.062.016.125.031.187.055.11.043.211.11.293.187.18.18.285.418.449.61.168.195.422.371.692.36-.024.054-.051.108-.078.163a18.97 18.97 0 0 0-.329.633c-.046.097-.097.2-.14.297-.051-.196-.168-.364-.395-.426-.226-.063-.484-.035-.711 0a2.02 2.02 0 0 0-.378.09.328.328 0 0 0-.09.043c-.387.086-.77.281-1.09.453-.602.32-1.168.703-1.766 1.035-1.097.598-2.707 1.062-3.73.094-.125-.118-.313.066-.192.187.992 1 2.532.735 3.688.188.648-.305 1.234-.723 1.847-1.09.305-.18.618-.356.946-.496.226-.102.465-.168.707-.235.039 0 .082-.01.125-.01.172-.009.465-.04.617.065.25.172.102.633.035.86a4.513 4.513 0 0 1-.351.86 7.192 7.192 0 0 1-1.141 1.55 8.528 8.528 0 0 1-.664.628c-.223.184-.828.641-1.043.83-.129.108.117.104.48-.04.227.875.629 1.738 1.067 2.52.301.542 1.07 1.628 1.765 2.452.657.781 1.375 1.5 2.114 2.203.718.688 1.457 1.356 2.144 2.071.77.8 1.481 1.648 2.145 2.54m-13.43 4.874c-.016.16-.019.32-.031.48a15.974 15.974 0 0 1-.238 1.88c-.262 1.448-.629 2.983-1.438 4.237-.156.246-.344.516-.598.664 0-.01.004-.01-.004-.019.008-.012-.007-.149-.003-.117l-.024-.375c-.023-.477-.047-.95-.062-1.426-.078-1.91-.11-3.824-.188-5.734-.066-1.575-.074-2.872-.273-4.43.246.75.437 1.215.769 1.918.387.812.875 1.543 1.43 2.25.062.078-.012-.016.019.023.028.024.055.051.079.074.089.09.183.172.277.258.098.082.195.16.293.24-.004.026-.004.05-.008.077M1.783 3.308c.063-.559.172-1.11.328-1.649l.036-.105c-.004.008-.004.008-.004.012-.075.527-.114 1.05-.11 1.582.004 1.027.11 2.132.434 3.117-.18.051-.352.148-.512.258a9.786 9.786 0 0 1-.172-3.215m7.27-1.594c.32-.402.664-.785.984-1.184.008.196.035.4.051.586l.066.821c.02.27.039.543.055.816l.024.414c0 .06 0 .121.003.184l-.203.035c-.207.035-.414.062-.621.086a.142.142 0 0 0-.054-.039c.066.027-.04-.028-.059-.039-.051-.028-.106-.047-.16-.07a7.82 7.82 0 0 0-.52-.192 5.37 5.37 0 0 0-.492-.152c.293-.438.602-.86.926-1.266m5.32 10.961v-.027c.41-.43.844-.832 1.266-1.25 1.094-1.079 1.926-2.422 2.14-3.957.067-.454.008-.899-.023-1.352-.016-.21-.027-.352-.004-.559a.614.614 0 0 1 .309-.453v-.004a.432.432 0 0 1 .156-.046c.312-.012.578.11.887.347.058.035.113.078.172.125.441.38.882.781 1.246 1.235.757.95 1.222 2.113 1.457 3.296.07.364.117.727.14 1.09a4.67 4.67 0 0 1-.074.49c-.07.334-.207.924-.551 1.088-.191.094-.375-.015-.527-.179a2.162 2.162 0 0 1-.285-.399c-.188-.316-.344-.652-.555-.957a1.818 1.818 0 0 0-.531-.535c-.012-.012-.024-.016-.039-.023-.02-.012-.039-.024-.059-.032a2.881 2.881 0 0 1-.082-.035c-.008 0-.012-.01-.019-.01-.036-.013-.075-.025-.114-.037-.363-.086-.738.012-1.058.188a3.029 3.029 0 0 0-.629.484 8.73 8.73 0 0 0-.336.36c-.137.152-.27.304-.406.45-.145.163-.293.32-.45.46-.359.332-.781.718-1.242.898-.179.07-.379.094-.535-.015a.397.397 0 0 1-.117-.098.637.637 0 0 1-.137-.547m6.5 4.57a10.098 10.098 0 0 0 1.488-3.195c.633-2.449.278-5.359-1.296-7.395-.415-.539-1.028-1.109-1.567-1.51-.781-.587-1.199-.634-1.539-.556a.523.523 0 0 0-.254.133c-.562.535-.316 1.312-.32 2.043-.008.836-.305 1.715-.684 2.453a6.662 6.662 0 0 1-1.258 1.687c-.468.47-.972.895-1.429 1.372-.508.52-.981 1-1.36 1.625-.222-.293-.996-1.454-1.414-2.32-.222-.462-.402-.969-.605-1.438.004 0 .004 0 .008-.012.175-.1.285-.219.441-.344.227-.179.442-.375.649-.582.41-.41.781-.859 1.085-1.35a5.23 5.23 0 0 0 .528-1.056c.008-.012.012-.012.015-.023.215-.489.407-.989.618-1.48.113-.263.269-.556.312-.849.035-.039.262-.398.274-.769.007-.137-.024-.223-.067-.352a.825.825 0 0 0-.262-.41.95.95 0 0 0-.496-.172c-.285-.015-.582.051-.863.094a39.57 39.57 0 0 0-.949.18c-.438.086-.871.176-1.309.258a3.406 3.406 0 0 1-.011-.114 11.376 11.376 0 0 1-.043-.414c-.032-.28-.067-.562-.102-.844-.035-.277-.074-.55-.113-.828-.039-.26-.059-.55-.153-.8 0 0-.004 0-.004-.008-.007-.082-.082-.156-.164-.094-.476.367-.886.816-1.269 1.273-.379.454-.731.926-1.055 1.422-.121-.023-.246-.047-.367-.058a7.104 7.104 0 0 0-1.406.011 8.254 8.254 0 0 0-.676.094c-.082.016-.176.028-.27.055L4.9 2.812a16.376 16.376 0 0 0-.929-1.481 9.634 9.634 0 0 0-.688-.855c-.175-.188-.41-.438-.679-.469v.004c-.028-.016-.059-.016-.086.008-.2.168-.317.5-.418.734a9.45 9.45 0 0 0-.309.813 10.198 10.198 0 0 0-.383 1.707 10.218 10.218 0 0 0 .114 3.27l.046.253c-.003 0-.007.012-.011.012-.203.16-.399.332-.574.52-.235.257-.45.534-.637.831-.145.231-.387.56-.34.848.062.394.473.273.75.246a6.44 6.44 0 0 1 .285-.016c.129 0 .195-.027.137.114-.074.18-.18.347-.242.54-.102.284-.168.671.07.913.191.191.48.215.734.172.223-.039.442-.063.664-.078.055.511.118 1.015.18 1.523.024.184.051.363.043.547-.039.933-.082 1.871-.117 2.805-.051 1.304-.055 2.597.191 3.882.075.383.09.457.192.84.402 3.832.461 7.996.59 11.844.019.488.039.977.062 1.465.012.234-.035.687.313.703.257.016.5-.262.648-.438.344-.41.598-.886.816-1.37.352-.786.606-1.61.801-2.45.199-.85.352-1.715.434-2.59.019-.19.039-.386.039-.582.082.055.168.11.258.157-.071.847-.133 1.695-.204 2.54-.058.772-.121 1.545-.171 2.323-.024.375-.047.75-.067 1.13-.019.307-.058.628-.039.936.004.071.012.141.024.211.003.016.003.035.007.051a.179.179 0 0 0 .133.141c.028.011.055.027.082.035.227.058.5-.05.696-.153.41-.214.722-.586.988-.957.285.371.734.688 1.199.731.18.015.359.012.539.015.758.008 1.516 0 2.277 0 1.899-.01 3.801-.03 5.7-.05.429-.012.855-.012 1.281-.02.113.012.254-.055.332-.098.418-.226.965-.87 1.289-1.453a11.47 11.47 0 0 0 1.012-2.51c.472-1.72.39-3.59-.156-5.283-.575-1.777-1.786-3.304-2.993-4.699a10.601 10.601 0 0 0-.265-.297c-.004 0-.004-.01-.008-.01a13.284 13.284 0 0 0 2.363-2.583"/><path id="Fill-34" fill="#E8DFDA" d="M14.627 13.331c.125.082.281.086.438.04.25-.07.468-.235.671-.387a7.43 7.43 0 0 0 1.118-.997c.136-.148.269-.296.406-.449.109-.12.219-.246.336-.363.191-.188.394-.363.633-.492.336-.188.746-.285 1.121-.16.015.007.031.011.047.02.007 0 .011 0 .019.007l.082.035.059.035c.015.008.027.012.039.02.215.133.387.328.531.54.211.3.367.636.555.956.062.105.164.265.285.398.156.164.351.278.547.164.172-.105.273-.332.347-.507.082-.196.141-.399.18-.61.031-.14.055-.293.067-.445a8.886 8.886 0 0 0-.137-1.094c-.238-1.19-.707-2.367-1.477-3.316-.367-.453-.781-.825-1.222-1.199-.059-.05-.114-.094-.168-.137-.309-.242-.575-.363-.887-.348a.33.33 0 0 0-.156.047.629.629 0 0 0-.309.453c-.023.211-.012.352.004.563.031.45.086.894.023 1.347-.214 1.535-1.046 2.88-2.14 3.957-.422.418-.856.821-1.266 1.25v.028a.635.635 0 0 0 .137.547.462.462 0 0 0 .117.101"/></g></g></svg>